<?xml version="1.0" encoding="UTF-8" standalone="no"?>
<svg
   xmlns:dc="http://purl.org/dc/elements/1.1/"
   xmlns:cc="http://creativecommons.org/ns#"
   xmlns:rdf="http://www.w3.org/1999/02/22-rdf-syntax-ns#"
   xmlns:svg="http://www.w3.org/2000/svg"
   xmlns="http://www.w3.org/2000/svg"
   xmlns:sodipodi="http://sodipodi.sourceforge.net/DTD/sodipodi-0.dtd"
   xmlns:inkscape="http://www.inkscape.org/namespaces/inkscape"
   viewBox="0 0 32 32"
   version="1.1"
   id="svg12"
   sodipodi:docname="sql.svg"
   inkscape:version="0.92.4 (5da689c313, 2019-01-14)">
  <metadata
     id="metadata18">
    <rdf:RDF>
      <cc:Work
         rdf:about="">
        <dc:format>image/svg+xml</dc:format>
        <dc:type
           rdf:resource="http://purl.org/dc/dcmitype/StillImage" />
      </cc:Work>
    </rdf:RDF>
  </metadata>
  <defs
     id="defs16" />
  <sodipodi:namedview
     pagecolor="#ffffff"
     bordercolor="#666666"
     borderopacity="1"
     objecttolerance="10"
     gridtolerance="10"
     guidetolerance="10"
     inkscape:pageopacity="0"
     inkscape:pageshadow="2"
     inkscape:window-width="748"
     inkscape:window-height="480"
     id="namedview14"
     showgrid="false"
     inkscape:zoom="7.375"
     inkscape:cx="16"
     inkscape:cy="16"
     inkscape:window-x="0"
     inkscape:window-y="0"
     inkscape:window-maximized="0"
     inkscape:current-layer="svg12" />
  <title
     id="title2">file_type_sql</title>
  <path
     d="m 6.6389793,15.655575 a 26.050863,21.36393 0 0 0 9.1576307,1.204554 26.050863,21.36393 0 0 0 9.157632,-1.205564 c 2.294948,-0.734041 3.108768,-1.549867 3.108768,-2.019371 v -3.589431 a 12.751491,10.45731 0 0 1 -2.565811,1.086422 27.447037,22.508913 0 0 1 -9.700589,1.314609 27.529528,22.576562 0 0 1 -9.7005878,-1.31259 12.656688,10.379564 0 0 1 -2.5658111,-1.088441 v 3.584383 c 0,0.47859 0.8162825,1.290378 3.1087682,2.025429 z"
     style="fill:#696969;fill-opacity:1;stroke-width:1.1149528"
     id="path4"
     inkscape:connector-curvature="0" />
  <path
     d="m 6.6389793,22.425514 a 19.22019,15.762196 0 0 0 3.2011086,0.748177 30.656763,25.141162 0 0 0 5.9565221,0.457387 30.656763,25.141162 0 0 0 5.956523,-0.456378 19.223884,15.765225 0 0 0 3.201109,-0.748176 C 27.24919,21.692483 28.06301,20.876657 28.06301,20.407153 V 16.98432 A 13.181178,10.80969 0 0 1 25.979827,17.81731 28.920779,23.717506 0 0 1 15.79661,19.173317 28.920779,23.717506 0 0 1 5.6133936,17.812262 13.332615,10.933881 0 0 1 3.5302111,16.979272 v 3.425862 c 0,0.470513 0.8162825,1.283309 3.1087682,2.02038 z"
     style="fill:#696969;fill-opacity:1;stroke-width:1.1149528"
     id="path6"
     inkscape:connector-curvature="0" />
  <path
     d="m 15.79661,30.542373 c 6.771575,0 12.2664,-1.760891 12.2664,-3.931714 v -2.864477 a 12.927551,10.601695 0 0 1 -1.889885,0.76938 l -0.193298,0.06361 A 28.917085,23.714477 0 0 1 15.79661,25.943257 28.837057,23.648847 0 0 1 5.6133936,24.579172 C 5.5469096,24.558982 5.4828869,24.53576 5.4200959,24.515558 A 12.927551,10.601695 0 0 1 3.5302111,23.746182 v 2.864477 c 0,2.170823 5.4948253,3.931714 12.2663989,3.931714 z"
     style="fill:#696969;fill-opacity:1;stroke-width:1.1149528"
     id="path8"
     inkscape:connector-curvature="0" />
  <ellipse
     cx="15.79661"
     cy="6.2028995"
     rx="12.266399"
     ry="3.9317143"
     style="fill:#696969;fill-opacity:1;stroke-width:1.1149528"
     id="ellipse10" />
</svg>
